# xmcd CD database file
#
# Track frame offsets:
#	150
#	21346
#	36416
#	50460
#	67825
#	86153
#	103865
#	126500
#	135906
#	145857
#	162921
#	176000
#	190291
#
# Disc length: 2765 seconds
#
# Revision: 0
# Processed by: cddbd v1.5.2PL0 Copyright (c) Steve Scherf et al.
# Submitted via: CDex 1.51
#
DISCID=ba0acb0d
DTITLE=The Late Bill Williams - Blues, Rags And Ballads
DYEAR=1900
DGENRE=Blues
TTITLE0=Salty Dog
TTITLE1=Corn Liquor Blues
TTITLE2=Listen To The Mockingbird
TTITLE3=Make Me A Pallet On The Floor
TTITLE4=That's The Human Thing To Do
TTITLE5=Bubblegum
TTITLE6=Darktown Strutter's Ball
TTITLE7=Nobody's Business
TTITLE8=Buckdance
TTITLE9=Some Of These Days
TTITLE10=Blake's Rag
TTITLE11=Railroad Bill
TTITLE12=When The Roses Bloom Again
EXTD=
EXTT0=
EXTT1=
EXTT2=
EXTT3=
EXTT4=
EXTT5=
EXTT6=
EXTT7=
EXTT8=
EXTT9=
EXTT10=
EXTT11=
EXTT12=
PLAYORDER=
